<?xml version="1.0" standalone="no"?>
<!DOCTYPE svg PUBLIC "-//W3C//DTD SVG 20010904//EN"
 "http://www.w3.org/TR/2001/REC-SVG-20010904/DTD/svg10.dtd">
<svg version="1.0" xmlns="http://www.w3.org/2000/svg"
 width="5000.000000pt" height="4000.000000pt" viewBox="0 0 5000.000000 4000.000000"
 preserveAspectRatio="xMidYMid meet">

<g transform="translate(0.000000,4000.000000) scale(0.100000,-0.100000)"
fill="#000000" stroke="none">
<path d="M31236 31148 c317 -431 485 -1122 434 -1789 -35 -451 -119 -835 -265
-1214 -295 -765 -838 -1455 -1495 -1901 -453 -308 -1427 -758 -2073 -958 -334
-104 -581 -169 -1412 -376 -790 -197 -1124 -286 -1441 -384 -1268 -394 -2151
-897 -2869 -1638 -503 -517 -846 -1062 -1028 -1633 -320 -1000 -142 -1752 587
-2481 303 -302 588 -493 943 -630 649 -251 1428 -206 2175 126 73 32 134 57
136 55 6 -5 -132 -255 -206 -375 -158 -257 -323 -463 -551 -690 -406 -406
-867 -699 -1418 -903 -435 -162 -941 -257 -1368 -257 -1017 0 -2064 475 -2944
1335 -786 769 -1315 1710 -1517 2700 -253 1238 -34 2628 616 3915 486 960
1104 1663 2000 2272 606 412 1259 693 2065 888 208 50 490 104 916 175 250 41
702 118 1004 170 1310 227 1616 263 2835 335 1116 66 1637 113 2147 195 639
103 1139 304 1578 635 52 40 98 76 100 80 14 23 -649 372 -1023 538 -1004 446
-2045 723 -3127 831 -395 40 -540 46 -1045 46 -516 -1 -724 -11 -1125 -56
-2177 -242 -4199 -1168 -5810 -2659 -1842 -1705 -2991 -4021 -3229 -6510 -35
-356 -41 -505 -41 -990 0 -504 7 -647 46 -1035 150 -1489 616 -2902 1384
-4195 336 -566 802 -1193 1234 -1660 54 -58 114 -124 134 -146 l37 -41 -36
-139 c-218 -852 -215 -1664 10 -2354 205 -629 604 -1197 1101 -1565 113 -84
123 -85 69 -13 -240 326 -394 794 -434 1317 -28 371 16 814 121 1236 235 934
848 1814 1639 2351 308 209 950 532 1480 744 509 204 851 304 2060 604 1098
272 1518 395 2038 595 466 178 925 409 1291 648 847 553 1566 1385 1869 2161
349 893 314 1605 -112 2250 -195 296 -516 622 -815 826 -390 268 -830 412
-1320 432 -426 17 -924 -86 -1373 -286 -73 -32 -134 -57 -136 -55 -6 5 132
255 206 375 158 257 323 463 551 690 440 440 949 750 1566 956 375 125 847
204 1220 204 1017 0 2064 -475 2944 -1335 786 -769 1315 -1710 1517 -2700 275
-1348 -12 -2881 -794 -4246 -451 -786 -1032 -1405 -1822 -1941 -608 -413
-1259 -693 -2065 -888 -208 -50 -490 -104 -916 -175 -250 -41 -701 -118 -1004
-170 -1310 -227 -1617 -263 -2835 -335 -1016 -60 -1421 -94 -1947 -166 -670
-90 -1140 -246 -1567 -518 -108 -70 -301 -209 -311 -226 -9 -15 332 -204 655
-364 1092 -542 2281 -884 3495 -1005 399 -40 541 -46 1045 -46 516 1 724 11
1125 56 2176 242 4199 1168 5810 2659 1742 1613 2868 3776 3184 6121 66 486
86 804 86 1379 0 495 -8 663 -46 1039 -153 1493 -617 2900 -1384 4191 -336
566 -802 1193 -1234 1660 -54 58 -114 124 -134 146 l-37 41 36 139 c270 1054
201 2021 -201 2819 -222 440 -544 829 -910 1100 -113 84 -123 85 -69 13z"/>
</g>
</svg>
